<svg width="19" height="19" viewBox="0 0 19 19" fill="none" xmlns="http://www.w3.org/2000/svg">
<path d="M4.75 1.58333L2.375 4.75V15.8333C2.375 16.2533 2.54181 16.656 2.83875 16.9529C3.13568 17.2499 3.53841 17.4167 3.95833 17.4167H15.0417C15.4616 17.4167 15.8643 17.2499 16.1613 16.9529C16.4582 16.656 16.625 16.2533 16.625 15.8333V4.75L14.25 1.58333H4.75Z" stroke="white" stroke-width="2" stroke-linecap="round" stroke-linejoin="round"/>
<path d="M2.375 4.75H16.625" stroke="white" stroke-width="2" stroke-linecap="round" stroke-linejoin="round"/>
<path d="M12.6666 7.91667C12.6666 8.75652 12.333 9.56197 11.7391 10.1558C11.1452 10.7497 10.3398 11.0833 9.49992 11.0833C8.66007 11.0833 7.85461 10.7497 7.26075 10.1558C6.66688 9.56197 6.33325 8.75652 6.33325 7.91667" stroke="white" stroke-width="2" stroke-linecap="round" stroke-linejoin="round"/>
</svg>
